<mxfile host="Electron" agent="Mozilla/5.0 (Windows NT 10.0; Win64; x64) AppleWebKit/537.36 (KHTML, like Gecko) draw.io/26.2.15 Chrome/134.0.6998.205 Electron/35.2.1 Safari/537.36" version="26.2.15">
  <diagram name="Page-1" id="jX8L47s6F3mJzGP4SmXn">
    <mxGraphModel dx="1090" dy="782" grid="1" gridSize="10" guides="1" tooltips="1" connect="1" arrows="1" fold="1" page="1" pageScale="1" pageWidth="850" pageHeight="1100" math="0" shadow="0">
      <root>
        <mxCell id="0" />
        <mxCell id="1" parent="0" />
        <mxCell id="-W3lvNtBoNwskRZax0wt-1" value="begin" style="ellipse;whiteSpace=wrap;html=1;" vertex="1" parent="1">
          <mxGeometry x="75" y="10" width="120" height="80" as="geometry" />
        </mxCell>
        <mxCell id="-W3lvNtBoNwskRZax0wt-23" style="edgeStyle=orthogonalEdgeStyle;rounded=0;orthogonalLoop=1;jettySize=auto;html=1;entryX=0.5;entryY=0;entryDx=0;entryDy=0;" edge="1" parent="1" source="-W3lvNtBoNwskRZax0wt-2" target="-W3lvNtBoNwskRZax0wt-3">
          <mxGeometry relative="1" as="geometry" />
        </mxCell>
        <mxCell id="-W3lvNtBoNwskRZax0wt-2" value="input Cust_name,&lt;div&gt;Num_texts&lt;/div&gt;" style="shape=parallelogram;perimeter=parallelogramPerimeter;whiteSpace=wrap;html=1;fixedSize=1;" vertex="1" parent="1">
          <mxGeometry x="60" y="140" width="180" height="60" as="geometry" />
        </mxCell>
        <mxCell id="-W3lvNtBoNwskRZax0wt-24" style="edgeStyle=orthogonalEdgeStyle;rounded=0;orthogonalLoop=1;jettySize=auto;html=1;entryX=0.5;entryY=0;entryDx=0;entryDy=0;" edge="1" parent="1" source="-W3lvNtBoNwskRZax0wt-3" target="-W3lvNtBoNwskRZax0wt-6">
          <mxGeometry relative="1" as="geometry" />
        </mxCell>
        <mxCell id="-W3lvNtBoNwskRZax0wt-3" value="Main_Bill=5$" style="rounded=0;whiteSpace=wrap;html=1;" vertex="1" parent="1">
          <mxGeometry x="60" y="270" width="170" height="60" as="geometry" />
        </mxCell>
        <mxCell id="-W3lvNtBoNwskRZax0wt-17" style="edgeStyle=orthogonalEdgeStyle;rounded=0;orthogonalLoop=1;jettySize=auto;html=1;entryX=0;entryY=0.5;entryDx=0;entryDy=0;" edge="1" parent="1" source="-W3lvNtBoNwskRZax0wt-4" target="-W3lvNtBoNwskRZax0wt-13">
          <mxGeometry relative="1" as="geometry" />
        </mxCell>
        <mxCell id="-W3lvNtBoNwskRZax0wt-27" style="edgeStyle=orthogonalEdgeStyle;rounded=0;orthogonalLoop=1;jettySize=auto;html=1;" edge="1" parent="1" source="-W3lvNtBoNwskRZax0wt-4" target="-W3lvNtBoNwskRZax0wt-8">
          <mxGeometry relative="1" as="geometry" />
        </mxCell>
        <mxCell id="-W3lvNtBoNwskRZax0wt-4" value="If Num_Texts&amp;gt;300" style="rhombus;whiteSpace=wrap;html=1;" vertex="1" parent="1">
          <mxGeometry x="80" y="670" width="110" height="110" as="geometry" />
        </mxCell>
        <mxCell id="-W3lvNtBoNwskRZax0wt-5" value="If Num_Texts &amp;gt;&lt;div&gt;&amp;amp;&amp;lt;=300&lt;/div&gt;" style="rhombus;whiteSpace=wrap;html=1;" vertex="1" parent="1">
          <mxGeometry x="80" y="520" width="110" height="110" as="geometry" />
        </mxCell>
        <mxCell id="-W3lvNtBoNwskRZax0wt-15" style="edgeStyle=orthogonalEdgeStyle;rounded=0;orthogonalLoop=1;jettySize=auto;html=1;entryX=0;entryY=0.75;entryDx=0;entryDy=0;" edge="1" parent="1" source="-W3lvNtBoNwskRZax0wt-6" target="-W3lvNtBoNwskRZax0wt-11">
          <mxGeometry relative="1" as="geometry" />
        </mxCell>
        <mxCell id="-W3lvNtBoNwskRZax0wt-25" style="edgeStyle=orthogonalEdgeStyle;rounded=0;orthogonalLoop=1;jettySize=auto;html=1;entryX=0.5;entryY=0;entryDx=0;entryDy=0;" edge="1" parent="1" source="-W3lvNtBoNwskRZax0wt-6" target="-W3lvNtBoNwskRZax0wt-5">
          <mxGeometry relative="1" as="geometry" />
        </mxCell>
        <mxCell id="-W3lvNtBoNwskRZax0wt-6" value="If Num_Texts&lt;div&gt;&amp;lt;=100&lt;/div&gt;" style="rhombus;whiteSpace=wrap;html=1;" vertex="1" parent="1">
          <mxGeometry x="70" y="370" width="120" height="120" as="geometry" />
        </mxCell>
        <mxCell id="-W3lvNtBoNwskRZax0wt-29" style="edgeStyle=orthogonalEdgeStyle;rounded=0;orthogonalLoop=1;jettySize=auto;html=1;" edge="1" parent="1" source="-W3lvNtBoNwskRZax0wt-7" target="-W3lvNtBoNwskRZax0wt-9">
          <mxGeometry relative="1" as="geometry" />
        </mxCell>
        <mxCell id="-W3lvNtBoNwskRZax0wt-7" value="total bill after taxes=&lt;div&gt;Total_bill+ *Total_bill&lt;/div&gt;" style="rounded=0;whiteSpace=wrap;html=1;" vertex="1" parent="1">
          <mxGeometry x="60" y="950" width="180" height="60" as="geometry" />
        </mxCell>
        <mxCell id="-W3lvNtBoNwskRZax0wt-28" style="edgeStyle=orthogonalEdgeStyle;rounded=0;orthogonalLoop=1;jettySize=auto;html=1;entryX=0.5;entryY=0;entryDx=0;entryDy=0;" edge="1" parent="1" source="-W3lvNtBoNwskRZax0wt-8" target="-W3lvNtBoNwskRZax0wt-7">
          <mxGeometry relative="1" as="geometry" />
        </mxCell>
        <mxCell id="-W3lvNtBoNwskRZax0wt-8" value="Total_Bill=Main_bill+14" style="rounded=0;whiteSpace=wrap;html=1;" vertex="1" parent="1">
          <mxGeometry x="60" y="820" width="180" height="60" as="geometry" />
        </mxCell>
        <mxCell id="-W3lvNtBoNwskRZax0wt-30" style="edgeStyle=orthogonalEdgeStyle;rounded=0;orthogonalLoop=1;jettySize=auto;html=1;" edge="1" parent="1" source="-W3lvNtBoNwskRZax0wt-9" target="-W3lvNtBoNwskRZax0wt-10">
          <mxGeometry relative="1" as="geometry" />
        </mxCell>
        <mxCell id="-W3lvNtBoNwskRZax0wt-9" value="Display Cust_Name&lt;div&gt;Display Total_Bill&lt;/div&gt;&lt;div&gt;Display Total_Bill_after_Tax&lt;/div&gt;" style="shape=parallelogram;perimeter=parallelogramPerimeter;whiteSpace=wrap;html=1;fixedSize=1;" vertex="1" parent="1">
          <mxGeometry x="50" y="1100" width="190" height="60" as="geometry" />
        </mxCell>
        <mxCell id="-W3lvNtBoNwskRZax0wt-10" value="end" style="ellipse;whiteSpace=wrap;html=1;" vertex="1" parent="1">
          <mxGeometry x="85" y="1260" width="120" height="80" as="geometry" />
        </mxCell>
        <mxCell id="-W3lvNtBoNwskRZax0wt-11" value="Excess_bill=.03$" style="rounded=0;whiteSpace=wrap;html=1;" vertex="1" parent="1">
          <mxGeometry x="300" y="390" width="180" height="60" as="geometry" />
        </mxCell>
        <mxCell id="-W3lvNtBoNwskRZax0wt-12" value="Num_Tests =Num_Texts&lt;div&gt;Excess_Bill=.1(Num+Texts)$&lt;/div&gt;" style="rounded=0;whiteSpace=wrap;html=1;" vertex="1" parent="1">
          <mxGeometry x="300" y="530" width="180" height="60" as="geometry" />
        </mxCell>
        <mxCell id="-W3lvNtBoNwskRZax0wt-13" value="Num_texts = Num_texts&lt;div&gt;Excess_Bill= *(Num_Texts)$+()&lt;/div&gt;" style="rounded=0;whiteSpace=wrap;html=1;" vertex="1" parent="1">
          <mxGeometry x="300" y="690" width="185" height="60" as="geometry" />
        </mxCell>
        <mxCell id="-W3lvNtBoNwskRZax0wt-16" style="edgeStyle=orthogonalEdgeStyle;rounded=0;orthogonalLoop=1;jettySize=auto;html=1;entryX=-0.006;entryY=0.633;entryDx=0;entryDy=0;entryPerimeter=0;" edge="1" parent="1" source="-W3lvNtBoNwskRZax0wt-5" target="-W3lvNtBoNwskRZax0wt-12">
          <mxGeometry relative="1" as="geometry" />
        </mxCell>
        <mxCell id="-W3lvNtBoNwskRZax0wt-18" value="yes" style="text;html=1;align=center;verticalAlign=middle;resizable=0;points=[];autosize=1;strokeColor=none;fillColor=none;" vertex="1" parent="1">
          <mxGeometry x="220" y="408" width="40" height="30" as="geometry" />
        </mxCell>
        <mxCell id="-W3lvNtBoNwskRZax0wt-19" value="yes" style="text;html=1;align=center;verticalAlign=middle;resizable=0;points=[];autosize=1;strokeColor=none;fillColor=none;" vertex="1" parent="1">
          <mxGeometry x="220" y="548" width="40" height="30" as="geometry" />
        </mxCell>
        <mxCell id="-W3lvNtBoNwskRZax0wt-21" value="yes" style="text;html=1;align=center;verticalAlign=middle;resizable=0;points=[];autosize=1;strokeColor=none;fillColor=none;" vertex="1" parent="1">
          <mxGeometry x="210" y="688" width="40" height="30" as="geometry" />
        </mxCell>
        <mxCell id="-W3lvNtBoNwskRZax0wt-22" style="edgeStyle=orthogonalEdgeStyle;rounded=0;orthogonalLoop=1;jettySize=auto;html=1;entryX=0.433;entryY=-0.05;entryDx=0;entryDy=0;entryPerimeter=0;" edge="1" parent="1" source="-W3lvNtBoNwskRZax0wt-1" target="-W3lvNtBoNwskRZax0wt-2">
          <mxGeometry relative="1" as="geometry" />
        </mxCell>
        <mxCell id="-W3lvNtBoNwskRZax0wt-26" style="edgeStyle=orthogonalEdgeStyle;rounded=0;orthogonalLoop=1;jettySize=auto;html=1;entryX=0.518;entryY=0.064;entryDx=0;entryDy=0;entryPerimeter=0;" edge="1" parent="1" source="-W3lvNtBoNwskRZax0wt-5" target="-W3lvNtBoNwskRZax0wt-4">
          <mxGeometry relative="1" as="geometry" />
        </mxCell>
        <mxCell id="-W3lvNtBoNwskRZax0wt-31" value="no" style="text;html=1;align=center;verticalAlign=middle;resizable=0;points=[];autosize=1;strokeColor=none;fillColor=none;" vertex="1" parent="1">
          <mxGeometry x="130" y="328" width="40" height="30" as="geometry" />
        </mxCell>
        <mxCell id="-W3lvNtBoNwskRZax0wt-32" value="no" style="text;html=1;align=center;verticalAlign=middle;resizable=0;points=[];autosize=1;strokeColor=none;fillColor=none;" vertex="1" parent="1">
          <mxGeometry x="130" y="478" width="40" height="30" as="geometry" />
        </mxCell>
        <mxCell id="-W3lvNtBoNwskRZax0wt-33" value="no" style="text;html=1;align=center;verticalAlign=middle;resizable=0;points=[];autosize=1;strokeColor=none;fillColor=none;" vertex="1" parent="1">
          <mxGeometry x="130" y="628" width="40" height="30" as="geometry" />
        </mxCell>
      </root>
    </mxGraphModel>
  </diagram>
</mxfile>
